<?xml version="1.0" encoding="utf-8"?>
<svg xmlns="http://www.w3.org/2000/svg" xmlns:xlink="http://www.w3.org/1999/xlink" style="margin: auto; background: none; display: block; shape-rendering: auto;" width="217px" height="217px" viewBox="0 0 100 100" preserveAspectRatio="xMidYMid">
<g transform="rotate(0 50 50)">
  <rect x="48.5" y="28.5" rx="0" ry="0" width="3" height="7" fill="#a855f7">
    <animate attributeName="opacity" values="1;0" keyTimes="0;1" dur="0.970873786407767s" begin="-0.8826125330979699s" repeatCount="indefinite"></animate>
  </rect>
</g><g transform="rotate(32.72727272727273 50 50)">
  <rect x="48.5" y="28.5" rx="0" ry="0" width="3" height="7" fill="#a855f7">
    <animate attributeName="opacity" values="1;0" keyTimes="0;1" dur="0.970873786407767s" begin="-0.794351279788173s" repeatCount="indefinite"></animate>
  </rect>
</g><g transform="rotate(65.45454545454545 50 50)">
  <rect x="48.5" y="28.5" rx="0" ry="0" width="3" height="7" fill="#a855f7">
    <animate attributeName="opacity" values="1;0" keyTimes="0;1" dur="0.970873786407767s" begin="-0.706090026478376s" repeatCount="indefinite"></animate>
  </rect>
</g><g transform="rotate(98.18181818181819 50 50)">
  <rect x="48.5" y="28.5" rx="0" ry="0" width="3" height="7" fill="#a855f7">
    <animate attributeName="opacity" values="1;0" keyTimes="0;1" dur="0.970873786407767s" begin="-0.617828773168579s" repeatCount="indefinite"></animate>
  </rect>
</g><g transform="rotate(130.9090909090909 50 50)">
  <rect x="48.5" y="28.5" rx="0" ry="0" width="3" height="7" fill="#a855f7">
    <animate attributeName="opacity" values="1;0" keyTimes="0;1" dur="0.970873786407767s" begin="-0.529567519858782s" repeatCount="indefinite"></animate>
  </rect>
</g><g transform="rotate(163.63636363636363 50 50)">
  <rect x="48.5" y="28.5" rx="0" ry="0" width="3" height="7" fill="#a855f7">
    <animate attributeName="opacity" values="1;0" keyTimes="0;1" dur="0.970873786407767s" begin="-0.44130626654898497s" repeatCount="indefinite"></animate>
  </rect>
</g><g transform="rotate(196.36363636363637 50 50)">
  <rect x="48.5" y="28.5" rx="0" ry="0" width="3" height="7" fill="#a855f7">
    <animate attributeName="opacity" values="1;0" keyTimes="0;1" dur="0.970873786407767s" begin="-0.353045013239188s" repeatCount="indefinite"></animate>
  </rect>
</g><g transform="rotate(229.0909090909091 50 50)">
  <rect x="48.5" y="28.5" rx="0" ry="0" width="3" height="7" fill="#a855f7">
    <animate attributeName="opacity" values="1;0" keyTimes="0;1" dur="0.970873786407767s" begin="-0.264783759929391s" repeatCount="indefinite"></animate>
  </rect>
</g><g transform="rotate(261.8181818181818 50 50)">
  <rect x="48.5" y="28.5" rx="0" ry="0" width="3" height="7" fill="#a855f7">
    <animate attributeName="opacity" values="1;0" keyTimes="0;1" dur="0.970873786407767s" begin="-0.176522506619594s" repeatCount="indefinite"></animate>
  </rect>
</g><g transform="rotate(294.54545454545456 50 50)">
  <rect x="48.5" y="28.5" rx="0" ry="0" width="3" height="7" fill="#a855f7">
    <animate attributeName="opacity" values="1;0" keyTimes="0;1" dur="0.970873786407767s" begin="-0.088261253309797s" repeatCount="indefinite"></animate>
  </rect>
</g><g transform="rotate(327.27272727272725 50 50)">
  <rect x="48.5" y="28.5" rx="0" ry="0" width="3" height="7" fill="#a855f7">
    <animate attributeName="opacity" values="1;0" keyTimes="0;1" dur="0.970873786407767s" begin="0s" repeatCount="indefinite"></animate>
  </rect>
</g>
<!-- [ldio] generated by https://loading.io/ --></svg>