<svg width="154" height="133" viewBox="0 0 154 133" fill="none" xmlns="http://www.w3.org/2000/svg">
<path d="M153.86 0V23.864C141.3 25.9573 132.508 30.3533 127.484 37.052C122.46 43.7507 119.948 55.6827 119.948 72.848H151.976V132.508H90.432V82.268C90.432 56.3107 95.2467 36.2147 104.876 21.98C114.505 7.32666 130.833 0 153.86 0ZM63.428 0V23.864C50.868 25.9573 42.076 30.3533 37.052 37.052C32.028 43.7507 29.516 55.6827 29.516 72.848H61.544V132.508H0V82.268C0 56.3107 4.81467 36.2147 14.444 21.98C24.0733 7.32666 40.4013 0 63.428 0Z" fill="#8C43D5" fill-opacity="0.06"/>
</svg>
