<svg width="730" height="558" viewBox="0 0 730 558" fill="none" xmlns="http://www.w3.org/2000/svg">
<path d="M0 508.127V49.3905C0 48.8572 0.796333 43.8132 2.389 34.2585L272.375 265.22L3.186 524.055C1.062 516.621 0 511.312 0 508.127ZM35.839 2.40151C40.1447 0.700173 44.7501 -0.112461 49.378 0.0125067H776.506C781.382 0.0285656 786.224 0.835372 790.842 2.40151L520.06 234.16L484.221 262.831L413.34 320.969L342.459 262.831L306.62 234.16L35.839 2.40151ZM36.639 555.115L308.213 294.687L413.34 379.904L518.467 294.687L790.045 555.115C785.713 556.722 781.126 557.532 776.506 557.504H49.378C45.0209 557.483 40.7035 556.674 36.635 555.115H36.639ZM554.31 265.215L823.495 34.2585C825.104 39.1402 825.911 44.2505 825.884 49.3905V508.127C825.795 513.518 824.991 518.874 823.495 524.055L554.31 265.215Z" fill="black" fill-opacity="0.07"/>
</svg>
