<svg xmlns="http://www.w3.org/2000/svg">

  <symbol id="icon-check" viewBox="0 0 25 19">
    <path d="M8.46501 18.3078L0.365012 10.2079C0.131375 9.97418 0.00012207 9.65728 0.00012207 9.32685C0.00012207 8.99642 0.131375 8.67952 0.365012 8.44585L2.12701 6.68385C2.36068 6.45021 2.67758 6.31896 3.00801 6.31896C3.33844 6.31896 3.65535 6.45021 3.88901 6.68385L9.34501 12.1399L21.033 0.449851C21.2667 0.216214 21.5836 0.0849609 21.914 0.0849609C22.2444 0.0849609 22.5613 0.216214 22.795 0.449851L24.558 2.20785C24.7916 2.44152 24.9229 2.75842 24.9229 3.08885C24.9229 3.41928 24.7916 3.73618 24.558 3.96985L10.227 18.3078C9.99335 18.5415 9.67644 18.6727 9.34601 18.6727C9.01558 18.6727 8.69868 18.5415 8.46501 18.3078V18.3078Z" />
  </symbol>
  
  <symbol id="icon-times" viewBox="0 0 19 19">
    <path d="M12.951 9.20511L18.184 3.97511C18.4923 3.66663 18.6656 3.24829 18.6656 2.81211C18.6656 2.37592 18.4923 1.95759 18.184 1.64911L17.021 0.482107C16.7125 0.173726 16.2942 0.000488281 15.858 0.000488281C15.4218 0.000488281 15.0034 0.173726 14.695 0.482107L9.46097 5.71611L4.22697 0.482107C3.91848 0.173726 3.50015 0.000488281 3.06397 0.000488281C2.62778 0.000488281 2.20945 0.173726 1.90097 0.482107L0.737966 1.64511C0.429586 1.95359 0.256348 2.37192 0.256348 2.80811C0.256348 3.24429 0.429586 3.66262 0.737966 3.97111L5.97197 9.20511L0.737966 14.4391C0.429586 14.7476 0.256348 15.1659 0.256348 15.6021C0.256348 16.0383 0.429586 16.4566 0.737966 16.7651L1.90097 17.9281C2.20945 18.2365 2.62778 18.4097 3.06397 18.4097C3.50015 18.4097 3.91848 18.2365 4.22697 17.9281L9.46097 12.6951L14.695 17.9291C15.0034 18.2375 15.4218 18.4107 15.858 18.4107C16.2942 18.4107 16.7125 18.2375 17.021 17.9291L18.184 16.7661C18.4923 16.4576 18.6656 16.0393 18.6656 15.6031C18.6656 15.1669 18.4923 14.7486 18.184 14.4401L12.951 9.20511Z" />
  </symbol>

  <symbol id="icon-hamburger" viewBox="0 0 24 24" fill="none">
    <path stroke-linecap="round" stroke-linejoin="round" stroke-width="2" d="M4 6h16M4 12h16M4 18h16" />
  </symbol>

  <symbol id="icon-card" viewBox="0 0 20 20" fill="#fff">
    <path d="M4 4a2 2 0 00-2 2v1h16V6a2 2 0 00-2-2H4z" />
    <path fill-rule="evenodd" d="M18 9H2v5a2 2 0 002 2h12a2 2 0 002-2V9zM4 13a1 1 0 011-1h1a1 1 0 110 2H5a1 1 0 01-1-1zm5-1a1 1 0 100 2h1a1 1 0 100-2H9z" clip-rule="evenodd" />
  </symbol>

  <symbol id="icon-config" viewBox="0 0 20 20" fill="#fff">
    <path d="M5 4a1 1 0 00-2 0v7.268a2 2 0 000 3.464V16a1 1 0 102 0v-1.268a2 2 0 000-3.464V4zM11 4a1 1 0 10-2 0v1.268a2 2 0 000 3.464V16a1 1 0 102 0V8.732a2 2 0 000-3.464V4zM16 3a1 1 0 011 1v7.268a2 2 0 010 3.464V16a1 1 0 11-2 0v-1.268a2 2 0 010-3.464V4a1 1 0 011-1z" />
  </symbol>
  
  <symbol id="icon-safe" viewBox="0 0 20 20" fill="#fff">
    <path fill-rule="evenodd" d="M2.166 4.999A11.954 11.954 0 0010 1.944 11.954 11.954 0 0017.834 5c.11.65.166 1.32.166 2.001 0 5.225-3.34 9.67-8 11.317C5.34 16.67 2 12.225 2 7c0-.682.057-1.35.166-2.001zm11.541 3.708a1 1 0 00-1.414-1.414L9 10.586 7.707 9.293a1 1 0 00-1.414 1.414l2 2a1 1 0 001.414 0l4-4z" clip-rule="evenodd" />
  </symbol>
  
  <symbol id="icon-tube" viewBox="0 0 20 20" fill="#fff">
    <path fill-rule="evenodd" d="M7 2a1 1 0 00-.707 1.707L7 4.414v3.758a1 1 0 01-.293.707l-4 4C.817 14.769 2.156 18 4.828 18h10.343c2.673 0 4.012-3.231 2.122-5.121l-4-4A1 1 0 0113 8.172V4.414l.707-.707A1 1 0 0013 2H7zm2 6.172V4h2v4.172a3 3 0 00.879 2.12l1.027 1.028a4 4 0 00-2.171.102l-.47.156a4 4 0 01-2.53 0l-.563-.187a1.993 1.993 0 00-.114-.035l1.063-1.063A3 3 0 009 8.172z" clip-rule="evenodd" />
  </symbol>

</svg>
